<?xml version="1.0" encoding="UTF-8" standalone="no"?>
<!-- Created with Inkscape (http://www.inkscape.org/) -->

<svg
   xmlns:dc="http://purl.org/dc/elements/1.1/"
   xmlns:cc="http://creativecommons.org/ns#"
   xmlns:rdf="http://www.w3.org/1999/02/22-rdf-syntax-ns#"
   xmlns:svg="http://www.w3.org/2000/svg"
   xmlns="http://www.w3.org/2000/svg"
   xmlns:sodipodi="http://sodipodi.sourceforge.net/DTD/sodipodi-0.dtd"
   xmlns:inkscape="http://www.inkscape.org/namespaces/inkscape"
   id="svg2"
   version="1.1"
   inkscape:version="0.91 r13725"
   xml:space="preserve"
   width="326.86249"
   height="149.25"
   viewBox="0 0 326.86249 149.25"
   sodipodi:docname="Miami Dade County Logo CMYK Outline.svg"
   inkscape:export-filename="/home/mjumbewu/Programming/poepublic/shareabouts-miami-psc/src/flavors/ourmiami2017/static/css/images/JuanZapata_tall.png"
   inkscape:export-xdpi="137.67258"
   inkscape:export-ydpi="137.67258"><metadata
     id="metadata8"><rdf:RDF><cc:Work
         rdf:about=""><dc:format>image/svg+xml</dc:format><dc:type
           rdf:resource="http://purl.org/dc/dcmitype/StillImage" /><dc:title></dc:title></cc:Work></rdf:RDF></metadata><defs
     id="defs6" /><sodipodi:namedview
     pagecolor="#ffffff"
     bordercolor="#666666"
     borderopacity="1"
     objecttolerance="10"
     gridtolerance="10"
     guidetolerance="10"
     inkscape:pageopacity="0"
     inkscape:pageshadow="2"
     inkscape:window-width="1243"
     inkscape:window-height="523"
     id="namedview4"
     showgrid="false"
     inkscape:zoom="1.0004207"
     inkscape:cx="55.976451"
     inkscape:cy="74.625"
     inkscape:window-x="0"
     inkscape:window-y="27"
     inkscape:window-maximized="0"
     inkscape:current-layer="g12" /><g
     id="g10"
     inkscape:groupmode="layer"
     inkscape:label="ink_ext_XXXXXX"
     transform="matrix(1.25,0,0,-1.25,0,149.25)"><g
       id="g12"
       transform="scale(0.1,0.1)"><path
         d="m 1966.54,762.879 c -233.11,0 -808.03,-0.223 -808.03,-0.223 l 0,430.204 c 0,0 613.41,2.17 865.17,0.81 636.79,-35.88 755.3,-1122.5489 7.64,-1196.56844 -180.35,0 -872.81,5.00782 -872.81,5.00782 l 0,410.30862 c 0,0 640.09,0 812.45,0 215.4,0 215.4,350.238 -4.42,350.461"
         style="fill:#1478c7;fill-opacity:1;fill-rule:nonzero;stroke:none"
         id="path14"
         inkscape:connector-curvature="0" /><path
         d="m 6.07813,2.21094 1084.43997,0 0,410.957 -1084.43997,0 0,-410.957 z"
         style="fill:#4a8528;fill-opacity:1;fill-rule:nonzero;stroke:none"
         id="path16"
         inkscape:connector-curvature="0" /><path
         d="m 1081.54,547.91 50.3125,0 0,47.207 -50.3125,0 0,-47.207 z"
         style="fill:#231f20;fill-opacity:1;fill-rule:nonzero;stroke:none"
         id="path18"
         inkscape:connector-curvature="0" /><path
         d="m 133.082,620.613 75.391,89.746 51.797,0 0,-241.875 -58.75,0 0,150.918 -63.977,-75.918 -8.953,0 -63.3205,75.918 0,-150.918 -58.74997,0 0,241.875 51.93357,0 74.6289,-89.746"
         style="fill:#231f20;fill-opacity:1;fill-rule:nonzero;stroke:none"
         id="path20"
         inkscape:connector-curvature="0" /><path
         d="m 313.777,468.484 58.75,0 0,241.875 -58.75,0 0,-241.875 z"
         style="fill:#231f20;fill-opacity:1;fill-rule:nonzero;stroke:none"
         id="path22"
         inkscape:connector-curvature="0" /><path
         d="m 565.242,710.359 104.336,-241.875 -63.062,0 -19.309,47.5 -105.812,0 -17.528,-47.5 -62.414,0 95.266,241.875 68.523,0 z m 4.707,-151.875 -38.179,93.973 -34.692,-93.973 72.871,0"
         style="fill:#231f20;fill-opacity:1;fill-rule:nonzero;stroke:none"
         id="path24"
         inkscape:connector-curvature="0" /><path
         d="m 824.313,620.613 75.39,89.746 51.797,0 0,-241.875 -58.75,0 0,150.918 -63.977,-75.918 -8.953,0 -63.32,75.918 0,-150.918 -58.75,0 0,241.875 51.934,0 74.629,-89.746"
         style="fill:#231f20;fill-opacity:1;fill-rule:nonzero;stroke:none"
         id="path26"
         inkscape:connector-curvature="0" /><path
         d="m 1005.01,468.484 58.75,0 0,241.875 -58.75,0 0,-241.875 z"
         style="fill:#231f20;fill-opacity:1;fill-rule:nonzero;stroke:none"
         id="path28"
         inkscape:connector-curvature="0" /><path
         d="m 1158.99,710.207 103.73,0 c 40,0 71.67,-11.289 95.01,-33.848 23.34,-22.566 35.01,-51.738 35.01,-87.519 0,-37.52 -11.81,-66.985 -35.45,-88.391 -23.63,-21.414 -57.34,-32.117 -101.13,-32.117 l -97.17,0 0,241.875 z m 58.75,-44.375 0,-153.125 38.07,0 c 24.69,0 43.57,7.004 56.67,21.016 13.09,14.011 19.64,32.5 19.64,55.461 0,23.757 -6.64,42.468 -19.9,56.14 -13.26,13.672 -32.3,20.508 -57.09,20.508 l -37.39,0"
         style="fill:#231f20;fill-opacity:1;fill-rule:nonzero;stroke:none"
         id="path30"
         inkscape:connector-curvature="0" /><path
         d="m 1527.43,710.207 104.34,-241.875 -63.07,0 -19.31,47.5 -105.81,0 -17.53,-47.5 -62.41,0 95.27,241.875 68.52,0 z m 4.71,-151.875 -38.18,93.977 -34.69,-93.977 72.87,0"
         style="fill:#231f20;fill-opacity:1;fill-rule:nonzero;stroke:none"
         id="path32"
         inkscape:connector-curvature="0" /><path
         d="m 1632.61,710.207 103.73,0 c 40,0 71.67,-11.289 95.01,-33.848 23.34,-22.566 35.01,-51.738 35.01,-87.519 0,-37.52 -11.82,-66.985 -35.45,-88.391 -23.63,-21.414 -57.35,-32.117 -101.13,-32.117 l -97.17,0 0,241.875 z m 58.75,-44.375 0,-153.125 38.06,0 c 24.69,0 43.58,7.004 56.67,21.016 13.09,14.011 19.64,32.5 19.64,55.461 0,23.757 -6.64,42.468 -19.9,56.14 -13.26,13.672 -32.29,20.508 -57.09,20.508 l -37.38,0"
         style="fill:#231f20;fill-opacity:1;fill-rule:nonzero;stroke:none"
         id="path34"
         inkscape:connector-curvature="0" /><path
         d="m 2056.34,512.707 0,-44.375 -173.75,0 0,241.875 171.25,0 0,-44.375 -112.5,0 0,-50.625 107.5,0 0,-44.375 -107.5,0 0,-58.125 115,0"
         style="fill:#231f20;fill-opacity:1;fill-rule:nonzero;stroke:none"
         id="path36"
         inkscape:connector-curvature="0" /><path
         d="m 183.914,150.422 0,-52.3907 C 165.398,82.1211 145.969,74.1719 125.613,74.1719 c -26.2185,0 -47.1169,11.8476 -62.7028,35.5661 -15.586,23.723 -23.3711,52.961 -23.3711,87.711 0,34.746 8.1836,64.239 24.5547,88.477 16.3671,24.238 37.8202,36.367 64.3632,36.367 21.133,0 38.992,-7.031 53.582,-21.074 l 0,-53.301 c -17.891,16.25 -34.851,24.375 -50.894,24.375 -15.707,0 -28.547,-6.934 -38.5161,-20.781 -9.9805,-13.848 -14.9648,-31.496 -14.9648,-52.93 0,-21.562 4.9336,-39.352 14.8086,-53.383 9.8713,-14.019 22.5003,-21.027 37.8863,-21.027 7.579,0 14.895,1.609 21.954,4.848 7.062,3.242 17.597,10.371 31.601,21.402"
         style="fill:#ffffff;fill-opacity:1;fill-rule:nonzero;stroke:none"
         id="path38"
         inkscape:connector-curvature="0" /><path
         d="m 291.93,322.293 c 25.359,0 45.847,-12.441 61.472,-37.316 15.625,-24.883 23.438,-53.829 23.438,-86.836 0,-33.481 -7.93,-62.512 -23.777,-87.102 -15.86,-24.5898 -36.231,-36.8671 -61.133,-36.8671 -25.137,0 -45.606,12.2265 -61.399,36.7071 -15.801,24.473 -23.691,53.551 -23.691,87.262 0,33.125 7.832,62.101 23.515,86.925 15.684,24.813 36.204,37.227 61.575,37.227 z m 0,-198.121 c 14.043,0 25.351,6.797 33.925,20.43 8.575,13.609 12.86,31.488 12.86,53.628 0,22.247 -4.285,40.157 -12.86,53.719 -8.574,13.555 -19.882,20.344 -33.925,20.344 -14.043,0 -25.383,-6.789 -34.016,-20.344 -8.633,-13.562 -12.949,-31.472 -12.949,-53.719 0,-22.14 4.316,-40.019 12.949,-53.628 8.633,-13.633 19.973,-20.43 34.016,-20.43"
         style="fill:#ffffff;fill-opacity:1;fill-rule:nonzero;stroke:none"
         id="path40"
         inkscape:connector-curvature="0" /><path
         d="m 512.965,318.543 36.875,0 0,-136.953 c 0,-35.238 -6.406,-61.949 -19.211,-80.141 -12.801,-18.1873 -31.082,-27.2771 -54.852,-27.2771 -23.429,0 -41.632,9.207 -54.601,27.6171 -12.977,18.422 -19.461,44.91 -19.461,79.461 l 0,137.293 36.875,0 0,-138.742 c 0,-16.813 3.387,-30.289 10.176,-40.43 6.785,-10.133 15.644,-15.199 26.582,-15.199 11.386,0 20.496,5.168 27.343,15.539 6.844,10.367 10.274,25.121 10.274,44.238 l 0,134.594"
         style="fill:#ffffff;fill-opacity:1;fill-rule:nonzero;stroke:none"
         id="path42"
         inkscape:connector-curvature="0" /><path
         d="m 731.602,318.543 0,-240.6211 -30.762,0 -81.738,154.1561 0,-154.1561 -36.875,0 0,240.6211 33.828,0 78.672,-147.102 0,147.102 36.875,0"
         style="fill:#ffffff;fill-opacity:1;fill-rule:nonzero;stroke:none"
         id="path44"
         inkscape:connector-curvature="0" /><path
         d="m 899.172,318.543 0,-44.375 -53.75,0 0,-196.2461 -36.875,0 0,196.2461 -53.75,0 0,44.375 144.375,0"
         style="fill:#ffffff;fill-opacity:1;fill-rule:nonzero;stroke:none"
         id="path46"
         inkscape:connector-curvature="0" /><path
         d="m 962.738,77.9219 0,110.8791 -58.125,129.742 44.563,0 32,-75.625 32.614,75.625 44.57,0 -58.747,-128.313 0,-112.3081 -36.875,0"
         style="fill:#ffffff;fill-opacity:1;fill-rule:nonzero;stroke:none"
         id="path48"
         inkscape:connector-curvature="0" /></g></g></svg>